<svg xmlns="http://www.w3.org/2000/svg" viewBox="-178.3 -167.1 1000 700"><path d="M358.5-86.9c-5.5-1.5-10.9 2-11.9 7.5-1.5 5.5 2 10.9 7.5 11.9 72 14.9 124.2 79.5 124.2 153 0 17.9-3 35.3-8.9 51.7-2 5 1 10.4 6 12.4 1.5.5 2.5.5 3.5.5 4.5 0 7.9-2.5 9.4-6.5 6.5-18.9 9.9-38.3 9.9-58.1-.1-83-58.7-155.5-139.7-172.4zM165.2 85c0-73.5 52.2-137.6 124.2-153 5-1.5 8.4-6.5 7.5-11.9-1.5-5-6.5-8.4-11.9-7.5C204-70 145.4 2.5 145.4 85.5c0 19.9 3.5 39.3 9.9 58.1 1.5 4 5.5 6.5 9.4 6.5 1 0 2-.5 3.5-1 5-1.5 7.9-7.5 6-12.4-6-16.9-9-34.3-9-51.7zm269.3 108.8c-29.8 31.3-70.1 48.2-112.8 48.2s-83-17.4-112.8-48.2c-3.5-4-9.9-4.5-13.9-.5-4 3.5-4.5 9.9-.5 13.9 33.8 34.8 79 54.2 127.2 54.2s93.4-18.9 127.2-54.2c3.5-4 3.5-9.9-.5-13.9-3.9-3.5-9.9-3.5-13.9.5z" fill="#19323C"/><circle fill="#F24333" cx="321.7" cy="87" r="38.3"/><path d="M99.3 378.1h46v15.6h-46v52H78.7V323.6h75l-2.1 15.6H99.3v38.9zm78.7 67.6V323.6h20.5v122.1H178zm63.7-122.1h22.7l-42.7 55.6 46 66.6h-24.6l-43.7-65.3 42.3-56.9zm116.9 15.5H332v90.8h26.6v15.8H285v-15.8h26.6v-90.8H285v-15.6h73.6v15.6zm37.5-15.5h20.4v105h54.9l-2.3 17.2h-72.9V323.6zm106.2 0h20.4v105h54.9l-2.3 17.2h-72.9V323.6z" fill="#19323C"/></svg>